<svg aria-hidden="true" style="position:absolute;width:0;height:0;overflow:hidden" xmlns="http://www.w3.org/2000/svg"><defs>

<symbol id="icon-vector" viewBox="0 0 22 32"><path stroke-linejoin="round" stroke-linecap="round" stroke-width="6.4" d="M3.321 3.2 18.295 16 3.321 28.8"/></symbol>

<symbol id="icon-arrow" viewBox="0 0 8 8"><path d="M6.469 3.6 4.041 1.172l.566-.566L8.001 4 4.607 7.394l-.566-.566L6.469 4.4H0v-.8z"/></symbol>

<symbol id="icon-mobile" viewBox="0 0 48 32"><path d="M0 5.333V0h48v5.333H0zm0 13.334h48v-5.333H0v5.333zM0 32h48v-5.333H0V32z"/></symbol>

<symbol id="icon-close" viewBox="0 0 32 32"><path d="M31.439 3.166 28.273 0 15.72 12.553 3.167 0 .001 3.166l12.553 12.553L.001 28.272l3.166 3.166L15.72 18.885l12.553 12.553 3.166-3.166-12.553-12.553L31.439 3.166z"/></symbol>

<symbol id="facebook" viewBox="0 0 16 32"><path d="M14.266 15.97H10.09v15.39H3.763V15.97H.754v-5.409h3.009v-3.5c0-2.503 1.182-6.422 6.384-6.422l4.687.02v5.25h-3.401c-.558 0-1.342.28-1.342 1.474v3.183h4.729l-.553 5.403z"/></symbol>


<symbol id="github" viewBox="0 0 32 32"><path d="M16 .941C7.729.941.941 7.729.941 16c0 7.058 4.953 13.47 11.529 15.059v-4.982c-.652.143-1.251.147-1.915-.049-.89-.263-1.613-.856-2.15-1.76-.342-.577-.949-1.203-1.581-1.157l-.155-1.758c1.368-.117 2.551.833 3.254 2.013.312.525.671.832 1.132.969.446.131.924.068 1.481-.129.14-1.116.651-1.534 1.037-2.122v-.001c-3.922-.585-5.486-2.666-6.106-4.308-.822-2.181-.381-4.905 1.073-6.627.028-.034.079-.121.06-.183-.667-2.014.146-3.679.176-3.856.769.228.894-.229 3.342 1.258l.423.254c.177.105.121.045.298.032a12.77 12.77 0 0 1 3.16-.445 12.84 12.84 0 0 1 3.204.456l.137.014c-.012-.002.037-.009.12-.058 3.057-1.852 2.947-1.247 3.767-1.513.03.177.831 1.87.172 3.858-.089.274 2.65 2.782 1.132 6.809-.62 1.643-2.184 3.724-6.106 4.309v.001c.503.766 1.107 1.174 1.104 2.755v6.219c6.577-1.589 11.529-8.001 11.529-15.059C31.058 7.728 24.271.94 15.999.94z"/></symbol>

<symbol id="telegram" viewBox="0 0 40 32"><path d="m16.205 20.751-.635 8.339c.909 0 1.302-.364 1.774-.802l4.261-3.801 8.829 6.035c1.619.842 2.76.399 3.197-1.39l5.797-25.346c.514-2.234-.866-3.108-2.443-2.56L2.92 13.398c-2.325.842-2.29 2.052-.395 2.6l8.709 2.528L31.463 6.712c.952-.588 1.818-.263 1.106.326L16.205 20.751z"/></symbol>

<svg aria-hidden="true" style="position:absolute;width:0;height:0;overflow:hidden" xmlns="http://www.w3.org/2000/svg"><defs><symbol id="icon-Group-4" viewBox="0 0 139 32"><path fill="#fff" style="fill:var(--color1, #fff)" d="M85.333 16c0 8.837-7.163 16-16 16s-16-7.163-16-16 7.163-16 16-16 16 7.163 16 16zM32 16c0 8.837-7.163 16-16 16S0 24.837 0 16 7.163 0 16 0s16 7.163 16 16zM138.667 16c0 8.837-7.163 16-16 16s-16-7.163-16-16 7.163-16 16-16 16 7.163 16 16z"/></symbol></defs></svg>

<symbol id="icon-arrow-contacts" viewBox="0 0 26 32"><path d="M5.172 3.2 19.341 16 5.172 28.8"/></symbol>

<symbol id="icon-check" viewBox="0 0 42 32"><path d="m6.263 15.205-.22-.21-3.307 3.132 11.651 11.114L38.864 5.89l-3.285-3.134-21.192 20.197-8.124-7.75z"/></symbol>

<symbol id="icon-quote" viewBox="0 0 43 32">
<path d="M32.014 0c1.929 0 3.75 0.52 5.464 1.561s3.107 2.537 4.179 4.488c1.029 1.951 1.543 4.249 1.543 6.894s-0.643 5.225-1.929 7.74c-0.429 0.911-1.2 2.081-2.314 3.512-1.157 1.431-2.229 2.667-3.214 3.707l-4.050 4.098-2.893-4.813c2.014-1.257 3.793-2.818 5.336-4.683 1.543-1.821 2.314-3.491 2.314-5.008 0-0.78-0.171-1.409-0.514-1.886-1.5 1.084-3.171 1.626-5.014 1.626-1.329 0-2.593-0.412-3.793-1.236-1.243-0.78-2.229-1.821-2.957-3.122-0.771-1.258-1.157-2.558-1.157-3.902 0-1.518 0.45-2.97 1.35-4.358 0.857-1.388 1.993-2.515 3.407-3.382 1.371-0.824 2.786-1.236 4.243-1.236zM8.936 0c1.929 0 3.75 0.52 5.464 1.561s3.107 2.537 4.179 4.488c1.029 1.951 1.543 4.249 1.543 6.894 0 1.864-0.236 3.534-0.707 5.008-0.471 1.518-1.286 3.1-2.443 4.748-1.114 1.561-2.164 2.862-3.15 3.902-0.986 1.084-2.7 2.884-5.143 5.398l-2.893-4.813c2.014-1.257 3.793-2.818 5.336-4.683 1.543-1.821 2.314-3.491 2.314-5.008 0-0.78-0.171-1.409-0.514-1.886-1.5 1.084-3.171 1.626-5.014 1.626-1.329 0-2.593-0.412-3.793-1.236-1.243-0.78-2.229-1.821-2.957-3.122-0.771-1.258-1.157-2.558-1.157-3.902 0-1.518 0.429-2.97 1.286-4.358s1.993-2.515 3.407-3.382c1.371-0.824 2.786-1.236 4.243-1.236z"></path>
</symbol>

<symbol id="icon-house" viewBox="0 0 34 32">
<path d="M25.984 9.241c0.36-0.39 0.325-0.988-0.078-1.335l-8.863-7.65c-0.402-0.347-1.047-0.34-1.441 0.016l-8.893 8.042c-0.394 0.356-0.413 0.953-0.043 1.333l0.223 0.229c0.37 0.38 0.968 0.425 1.335 0.101l0.665-0.587v8.596c0 0.527 0.433 0.954 0.967 0.954h3.467c0.534 0 0.967-0.427 0.967-0.954v-6.014h4.422v6.014c-0.008 0.527 0.375 0.954 0.909 0.954h3.674c0.534 0 0.968-0.427 0.968-0.954v-8.474c0 0 0.184 0.159 0.41 0.355s0.701 0.039 1.060-0.352l0.252-0.273z"></path>
</symbol>

<symbol id="icon-square" viewBox="0 0 34 32"><path d="M30.341 3.556v24.889H3.793V3.556h26.548zm0-3.556H3.793C1.707 0 0 1.6 0 3.556v24.889c0 1.956 1.707 3.556 3.793 3.556h26.548c2.086 0 3.793-1.6 3.793-3.556V3.556C34.134 1.6 32.427 0 30.341 0z"/></symbol>

<symbol id="icon-vector-1" viewBox="0 0 42 32"><path d="m14.386 23.397-8.345-7.961-2.842 2.692 11.186 10.671L38.399 5.891l-2.822-2.692-21.192 20.197z"/><path stroke-width="1.28" d="m14.386 23.397-8.345-7.961-2.842 2.692 11.186 10.671L38.399 5.891l-2.822-2.692-21.192 20.197z"/></symbol>

<symbol id="icon-person" viewBox="0 0 32 32"><path d="M16 16c4.42 0 8-3.58 8-8s-3.58-8-8-8-8 3.58-8 8 3.58 8 8 8zm0 4c-5.34 0-16 2.68-16 8v2c0 1.1.9 2 2 2h28c1.1 0 2-.9 2-2v-2c0-5.32-10.66-8-16-8z"/></symbol>

<symbol id="icon-phone" viewBox="0 0 32 32"><path d="m27.419 20.852-4.201-.48a3.293 3.293 0 0 0-2.713.943l-3.044 3.044A24.888 24.888 0 0 1 6.56 13.458l3.06-3.06a3.293 3.293 0 0 0 .943-2.713l-.48-4.168A3.31 3.31 0 0 0 6.791.589H3.929C2.06.589.505 2.144.621 4.013c.877 14.126 12.174 25.407 26.284 26.284 1.869.116 3.424-1.439 3.424-3.308v-2.861c.016-1.671-1.241-3.077-2.911-3.275z"/></symbol>

<symbol id="icon-envelope-2" viewBox="0 0 43 32"><path d="M37.333 0h-32c-2.2 0-3.98 1.8-3.98 4l-.02 24c0 2.2 1.8 4 4 4h32c2.2 0 4-1.8 4-4V4c0-2.2-1.8-4-4-4zm-.8 8.5-14.14 8.84c-.64.4-1.48.4-2.12 0L6.133 8.5c-.5-.32-.8-.86-.8-1.44 0-1.34 1.46-2.14 2.6-1.44l13.4 8.38 13.4-8.38c1.14-.7 2.6.1 2.6 1.44 0 .58-.3 1.12-.8 1.44z"/></symbol>



</defs></svg>